Simulation
nRows=15
nColumns=15
endheader
time  TH_x TH_y TH_z SC_y  SC_z  SC_x  AC_y  AC_z  AC_x  GH_y  GH_z  GH_yy  EL_x  PS_y
8.073123595505619  0.000000  0.000000  0.000000  -31.25068160203103  4.589679435851078  -0.5360039238375173  56.780524057658695  8.172606819007198  3.335752511253112  51.35283178670913  1.359847375511847  12.434163654503275  16.805617183994137  120.000000
8.113288389513109  0.000000  0.000000  0.000000  -31.06141209170044  4.461992455241708  -1.11222415116179  56.89026545712338  7.788860478690826  3.595623997265689  35.466060993156795  2.8069251779844544  27.988679789687776  16.31234971245089  120.000000
8.153453183520599  0.000000  0.000000  0.000000  -30.873601689938287  4.336773575927902  -1.7113394807748716  57.02950391211952  7.445730572810675  3.9107384425717995  31.61165761462923  4.444037272602078  31.325048245096532  15.761854047170448  120.000000
8.19361797752809  0.000000  0.000000  0.000000  -30.69848788265445  4.232405569019634  -2.305370784711224  57.211901949489096  7.167170290304983  4.289232687691816  30.6000905464327  6.227204101235366  31.63303897084012  15.17530874657584  120.000000
8.23378277153558  0.000000  0.000000  0.000000  -30.550691661785017  4.169717811711784  -2.867474894441526  57.44851291105756  6.974096606371902  4.735406907400925  30.61861732076727  8.16324738720582  30.725349542748102  14.57637320908839  120.000000
8.273947565543072  0.000000  0.000000  0.000000  -30.446425232278795  4.169885228881967  -3.373022544116152  57.74692657352246  6.882394234501369  5.2503167505411845  31.095857643952776  10.264881318753762  29.17538100200621  13.988097326564057  120.000000
8.314112359550561  0.000000  0.000000  0.000000  -30.39924590075984  4.251708428749937  -3.799894097720697  58.11131388256113  6.90210238459036  5.8318390147432835  31.79273776041943  12.542021898178799  27.230058048907445  13.430711537679352  120.000000
8.354277153558053  0.000000  0.000000  0.000000  -30.416787899520106  4.428935687903377  -4.129126502398975  58.54142020989012  7.037155186596525  6.475359856470901  32.58333120530082  14.996382225009109  25.029209327156813  12.919372464398048  120.000000
8.394441947565543  0.000000  0.000000  0.000000  -30.49978385951009  4.707645718056393  -4.345208331995801  59.031288424886505  7.285646745408116  7.173750485661554  33.38694738325913  17.617040427092657  22.672332326517736  12.46272682694375  120.000000
8.434606741573035  0.000000  0.000000  0.000000  -30.641563346547418  5.088176958485429  -4.436887198709492  59.57185979142226  7.640836991777069  7.916805406178244  34.15299120977351  20.380234886733767  20.232202283413145  12.063679932636889  120.000000
8.474771535580524  0.000000  0.000000  0.000000  -30.829949660384617  5.565423740728775  -4.396620810375733  60.15443005922204  8.092456042540714  8.692792212806893  34.85541223712456  23.253842179555093  17.758720340154543  11.720799289602256  120.000000
8.514936329588014  0.000000  0.000000  0.000000  -31.049373706559113  6.128035911034094  -4.219204353307804  60.76938305806258  8.6266761106291  9.490431784818323  35.483617075144466  26.202430288643743  15.286093708120081  11.430019539664894  120.000000
8.555101123595506  0.000000  0.000000  0.000000  -31.28515589474413  6.761025739578386  -3.9023855529313263  61.40549763318737  9.226572374808635  10.299012670575904  36.03120547727904  29.189424539022653  12.841577047133065  11.185933005132416  120.000000
8.595265917602996  0.000000  0.000000  0.000000  -31.528655939884256  7.44800983894938  -3.4473043646592973  62.04897985998366  9.872948971075923  11.107583103566773  36.490718422865626  32.177692085125145  10.449699534341065  10.982532703411854  120.000000
8.635430711610487  0.000000  0.000000  0.000000  -31.77789772820877  8.172981363994984  -2.858194576177783  62.68327998449284  10.545141258303392  11.905237593256228  36.85436283512651  35.131618222602974  8.130960213402972  10.813697577203712  120.000000
